<svg width="29" height="30" viewBox="0 0 29 30" fill="none" xmlns="http://www.w3.org/2000/svg">
<path d="M17.747 6.92871C18.968 7.16692 20.09 7.76403 20.9696 8.64363C21.8492 9.52323 22.4463 10.6453 22.6845 11.8662L17.747 6.92871ZM17.747 1.92871C20.2836 2.21051 22.649 3.34643 24.4549 5.14997C26.2607 6.95351 27.3996 9.31747 27.6846 11.8537L17.747 1.92871ZM26.4346 21.8287V25.5787C26.436 25.9268 26.3647 26.2714 26.2252 26.5904C26.0857 26.9094 25.8812 27.1957 25.6246 27.431C25.3681 27.6664 25.0653 27.8456 24.7355 27.9571C24.4057 28.0686 24.0563 28.11 23.7095 28.0787C19.8631 27.6608 16.1683 26.3464 12.922 24.2412C9.90183 22.322 7.34122 19.7614 5.42205 16.7412C3.30952 13.4802 1.99485 9.76745 1.58455 5.90371C1.55331 5.55804 1.59439 5.20966 1.70517 4.88074C1.81596 4.55182 1.99401 4.24957 2.22801 3.99324C2.462 3.7369 2.7468 3.5321 3.06429 3.39186C3.38177 3.25163 3.72497 3.17904 4.07205 3.17871H7.82205C8.42868 3.17274 9.01679 3.38756 9.47675 3.78313C9.93671 4.17869 10.2371 4.72802 10.322 5.32871C10.4803 6.52879 10.7739 7.70712 11.197 8.84121C11.3652 9.28862 11.4016 9.77485 11.3019 10.2423C11.2022 10.7098 10.9706 11.1388 10.6345 11.4787L9.04705 13.0662C10.8265 16.1956 13.4176 18.7868 16.547 20.5662L18.1345 18.9787C18.4744 18.6426 18.9035 18.411 19.3709 18.3113C19.8384 18.2116 20.3246 18.248 20.772 18.4162C21.9061 18.8394 23.0845 19.1329 24.2846 19.2912C24.8918 19.3769 25.4463 19.6827 25.8427 20.1506C26.2391 20.6184 26.4498 21.2157 26.4346 21.8287Z" stroke="#486A6F" stroke-width="2" stroke-linecap="round" stroke-linejoin="round"/>
</svg>
